<?xml version="1.0" encoding="UTF-8"?>
<svg width="412px" height="412px" viewBox="0 0 412 412" version="1.1" xmlns="http://www.w3.org/2000/svg" xmlns:xlink="http://www.w3.org/1999/xlink">
    <title>web/icon</title>
    <defs>
        <linearGradient x1="50%" y1="0%" x2="50%" y2="100%" id="linearGradient-1">
            <stop stop-color="#374EBC" offset="0%"></stop>
            <stop stop-color="#A347FB" offset="100%"></stop>
        </linearGradient>
        <linearGradient x1="50%" y1="50%" x2="50%" y2="632.843374%" id="linearGradient-2">
            <stop stop-color="#FFFFFF" offset="0%"></stop>
            <stop stop-color="#6232FF" offset="99.8373362%"></stop>
            <stop stop-color="#6232FF" offset="100%"></stop>
            <stop stop-color="#FFFFFF" offset="100%"></stop>
            <stop stop-color="#6232FF" offset="100%"></stop>
        </linearGradient>
        <path d="M287.275867,78.5006694 C295.233585,78.5220956 298.741918,79.058075 301.896788,80.1397517 L302.289602,80.2778057 C302.550646,80.3717395 302.81042,80.4694719 303.071296,80.5710209 C306.65833,81.9673193 309.691648,84.0851935 312.238355,86.971497 C314.738758,89.8053222 316.517048,92.6904563 319.62422,101.086414 L319.798221,101.558561 L353.456152,193.264228 C355.241374,198.128311 355.835112,200.152684 356.181652,202.113209 L356.237281,202.439847 C356.25517,202.548847 356.272457,202.658126 356.289305,202.76816 C356.626265,204.968832 356.625649,207.030269 356.287374,209.230739 C356.27046,209.340763 356.253107,209.450031 356.235154,209.559021 L356.179329,209.885626 C355.841277,211.79149 355.269532,213.757565 353.59481,218.334237 L353.448541,218.732976 L319.721008,310.45877 C316.677107,318.736997 314.903738,321.814206 312.566999,324.562672 L312.294771,324.878621 L312.156586,325.036021 C309.609824,327.920085 306.577268,330.036079 302.991484,331.431058 C299.470896,332.800674 296.15112,333.475254 287.202258,333.499331 L286.699271,333.5 L229.823855,333.5 C228.896028,333.5 227.975273,333.338597 227.102766,333.02301 C223.027823,331.549094 220.881459,327.109016 222.218185,323.019068 L222.300845,322.778911 L259.979246,218.609215 C261.769893,213.658603 262.334916,211.677781 262.67073,209.691357 L262.724748,209.359725 L262.750485,209.192913 C263.080395,207.017558 263.080395,204.982442 262.750485,202.807087 C262.742026,202.751309 262.733454,202.695726 262.724748,202.640275 L262.67073,202.308643 C262.344245,200.377397 261.801106,198.451447 260.125651,193.796525 L259.979246,193.390785 L222.300845,89.2210887 C221.985258,88.3485821 221.823855,87.4278271 221.823855,86.5 C221.823855,82.1650857 225.271693,78.6354571 229.574675,78.5038068 L229.823855,78.5 L287.275867,78.5006694 Z M123.153527,78.5006694 C132.10596,78.5247739 135.42714,79.2001097 138.948955,80.5710209 C142.535989,81.9673193 145.569307,84.0851935 148.116014,86.971497 C150.616417,89.8053222 152.394708,92.6904563 155.50188,101.086414 L155.67588,101.558561 L189.333811,193.264228 C191.019854,197.858084 191.643123,199.918989 191.999104,201.785387 L192.059311,202.113209 C192.097816,202.331045 192.133268,202.548092 192.166964,202.76816 C192.503925,204.968832 192.503309,207.030269 192.165033,209.230739 C192.148119,209.340763 192.130767,209.450031 192.112814,209.559021 L192.056989,209.885626 C191.719212,211.789934 191.148125,213.754355 189.476569,218.323034 L189.326201,218.732976 L155.598667,310.45877 C152.379157,319.214587 150.581007,322.151958 148.034246,325.036021 C145.487484,327.920085 142.454928,330.036079 138.869144,331.431058 C135.348555,332.800674 132.02878,333.475254 123.079918,333.499331 L122.57693,333.5 L65.7015144,333.5 C64.7736873,333.5 63.8529322,333.338597 62.9804257,333.02301 C58.9054829,331.549094 56.7591185,327.109016 58.0958445,323.019068 L58.1785045,322.778911 L95.8569052,218.609215 C97.6475524,213.658603 98.2125761,211.677781 98.54839,209.691357 L98.6024075,209.359725 C98.6111137,209.304274 98.6196857,209.248691 98.6281449,209.192913 C98.9580544,207.017558 98.9580544,204.982442 98.6281449,202.807087 L98.6024075,202.640275 L98.6024075,202.640275 L98.54839,202.308643 C98.2219042,200.377397 97.6787657,198.451447 96.0033101,193.796525 L95.8569052,193.390785 L58.1785045,89.2210887 C57.8629171,88.3485821 57.7015144,87.4278271 57.7015144,86.5 C57.7015144,82.1650857 61.1493521,78.6354571 65.452335,78.5038068 L65.7015144,78.5 L123.153527,78.5006694 Z" id="path-3"></path>
        <filter x="-51.9%" y="-55.7%" width="204.0%" height="223.9%" filterUnits="objectBoundingBox" id="filter-4">
            <feOffset dx="0" dy="16" in="SourceAlpha" result="shadowOffsetOuter1"></feOffset>
            <feGaussianBlur stdDeviation="50" in="shadowOffsetOuter1" result="shadowBlurOuter1"></feGaussianBlur>
            <feColorMatrix values="0 0 0 0 0   0 0 0 0 0   0 0 0 0 0  0 0 0 0.48 0" type="matrix" in="shadowBlurOuter1"></feColorMatrix>
        </filter>
    </defs>
    <g id="web/icon" stroke="none" stroke-width="1" fill="none" fill-rule="evenodd">
        <g id="Group">
            <path d="M114.178929,0.00125263526 L297.821071,0.00125263526 L300.16747,0.0112645286 L302.45435,0.031264833 L304.682944,0.0612290451 C305.049587,0.0670520448 305.413854,0.0732891864 305.775768,0.0799399593 L307.919244,0.124804089 C308.271856,0.133107346 308.622167,0.141823212 308.970204,0.150951179 L311.031337,0.210660094 L313.039115,0.280234904 C313.69962,0.305068101 314.351437,0.331541529 314.994773,0.359651105 L316.899543,0.448884194 L318.754658,0.547909667 L320.561352,0.656703021 C320.8585,0.675647875 321.153683,0.694998704 321.446925,0.714754996 L323.183298,0.838154228 C328.323791,1.22292411 332.852208,1.7387334 336.918367,2.38260495 L338.256839,2.60196776 L339.562302,2.83079216 C339.777197,2.86971666 339.990768,2.90903438 340.203041,2.9487448 L341.461304,3.19171564 C341.668486,3.23299482 341.874422,3.27466568 342.079136,3.31672772 L343.292973,3.57378987 C343.492906,3.61741454 343.691668,3.66142936 343.889286,3.70583381 L345.061472,3.97693214 C346.992917,4.43654184 348.815087,4.9350133 350.55367,5.47183602 L351.586994,5.79852773 C352.6107,6.12981342 353.606163,6.47486881 354.578935,6.83358363 L355.544347,7.19684753 C355.704057,7.258149 355.863188,7.31982889 356.021765,7.38188667 L356.966797,7.75876406 C357.279731,7.88589872 357.590658,8.01454088 357.899783,8.14468647 L358.821956,8.53962942 C358.974819,8.60620359 359.127283,8.6731526 359.279373,8.74047593 L360.18764,9.14890373 L361.088176,9.5662908 L361.982216,9.99261264 L362.870991,10.4278447 L363.755736,10.8719626 L364.637684,11.3249417 L365.518067,11.7867576 C365.664735,11.864462 365.81139,11.9425335 365.958057,12.0209717 C380.624723,19.8647908 392.135209,31.3752767 399.979028,46.0419433 L400.445253,46.9220063 C400.522223,47.0687282 400.598825,47.2154896 400.675058,47.3623162 L401.128037,48.2442636 L401.572155,49.1290086 L402.007387,50.0177843 L402.433709,50.9118238 L402.851096,51.8123602 L403.259524,52.7206265 C403.326847,52.8727169 403.393796,53.0251807 403.460371,53.1780437 L403.855314,54.100217 C403.985459,54.4093417 404.114101,54.7202686 404.241236,55.033203 L404.618113,55.9782347 C404.680171,56.1368123 404.741851,56.2959432 404.803152,56.4556531 L405.166416,57.4210655 C405.525131,58.3938366 405.870187,59.3893004 406.201472,60.4130057 L406.528164,61.4463305 C407.064987,63.1849132 407.563458,65.0070826 408.023068,66.9385278 L408.294166,68.1107136 C408.338571,68.308332 408.382585,68.5070944 408.42621,68.7070267 L408.683272,69.9208639 C408.725334,70.1255782 408.767005,70.3315138 408.808284,70.5386962 L409.051255,71.7969592 C409.090966,72.0092319 409.130283,72.222803 409.169208,72.437698 L409.398032,73.7431612 L409.617395,75.0816326 C410.261267,79.147792 410.777076,83.6762085 411.161846,88.8167018 L411.285245,90.5530746 C411.305001,90.8463168 411.324352,91.1414995 411.343297,91.4386485 L411.45209,93.2453418 L411.551116,95.1004569 L411.640349,97.0052267 C411.654404,97.3268948 411.668049,97.6506832 411.681286,97.9766176 L411.755784,99.9581817 C411.76738,100.292803 411.778566,100.629622 411.78934,100.968663 L411.849049,103.029796 C411.858177,103.377833 411.866893,103.728144 411.875196,104.080756 L411.92006,106.224232 L411.954997,108.424144 C411.959991,108.795568 411.964571,109.169395 411.968735,109.54565 L411.988735,111.83253 L412,114.178929 C412,114.575024 412,114.973651 412,115.374834 L412,296.625166 L411.994992,299.001788 C411.993323,299.392846 411.991237,299.781398 411.988735,300.16747 L411.968735,302.45435 L411.938771,304.682944 C411.932948,305.049587 411.926711,305.413854 411.92006,305.775768 L411.875196,307.919244 C411.866893,308.271856 411.858177,308.622167 411.849049,308.970204 L411.78934,311.031337 L411.719765,313.039115 C411.694932,313.69962 411.668458,314.351437 411.640349,314.994773 L411.551116,316.899543 L411.45209,318.754658 L411.343297,320.561352 C411.324352,320.8585 411.305001,321.153683 411.285245,321.446925 L411.161846,323.183298 C410.777076,328.323791 410.261267,332.852208 409.617395,336.918367 L409.398032,338.256839 L409.169208,339.562302 C409.130283,339.777197 409.090966,339.990768 409.051255,340.203041 L408.808284,341.461304 C408.767005,341.668486 408.725334,341.874422 408.683272,342.079136 L408.42621,343.292973 C408.382585,343.492906 408.338571,343.691668 408.294166,343.889286 L408.023068,345.061472 C407.563458,346.992917 407.064987,348.815087 406.528164,350.55367 L406.201472,351.586994 C405.870187,352.6107 405.525131,353.606163 405.166416,354.578935 L404.803152,355.544347 C404.741851,355.704057 404.680171,355.863188 404.618113,356.021765 L404.241236,356.966797 C404.114101,357.279731 403.985459,357.590658 403.855314,357.899783 L403.460371,358.821956 C403.393796,358.974819 403.326847,359.127283 403.259524,359.279373 L402.851096,360.18764 L402.433709,361.088176 L402.007387,361.982216 L401.572155,362.870991 L401.128037,363.755736 L400.675058,364.637684 L400.213242,365.518067 C400.135538,365.664735 400.057467,365.81139 399.979028,365.958057 C392.135209,380.624723 380.624723,392.135209 365.958057,399.979028 L365.077994,400.445253 C364.931272,400.522223 364.78451,400.598825 364.637684,400.675058 L363.755736,401.128037 L362.870991,401.572155 L361.982216,402.007387 L361.088176,402.433709 L360.18764,402.851096 L359.279373,403.259524 C359.127283,403.326847 358.974819,403.393796 358.821956,403.460371 L357.899783,403.855314 C357.590658,403.985459 357.279731,404.114101 356.966797,404.241236 L356.021765,404.618113 C355.863188,404.680171 355.704057,404.741851 355.544347,404.803152 L354.578935,405.166416 C353.606163,405.525131 352.6107,405.870187 351.586994,406.201472 L350.55367,406.528164 C348.815087,407.064987 346.992917,407.563458 345.061472,408.023068 L343.889286,408.294166 C343.691668,408.338571 343.492906,408.382585 343.292973,408.42621 L342.079136,408.683272 C341.874422,408.725334 341.668486,408.767005 341.461304,408.808284 L340.203041,409.051255 C339.990768,409.090966 339.777197,409.130283 339.562302,409.169208 L338.256839,409.398032 L336.918367,409.617395 C332.852208,410.261267 328.323791,410.777076 323.183298,411.161846 L321.446925,411.285245 C321.153683,411.305001 320.8585,411.324352 320.561352,411.343297 L318.754658,411.45209 L316.899543,411.551116 L314.994773,411.640349 C314.673105,411.654404 314.349317,411.668049 314.023382,411.681286 L312.041818,411.755784 C311.707197,411.76738 311.370378,411.778566 311.031337,411.78934 L308.970204,411.849049 C308.622167,411.858177 308.271856,411.866893 307.919244,411.875196 L305.775768,411.92006 L303.575856,411.954997 C303.204432,411.959991 302.830605,411.964571 302.45435,411.968735 L300.16747,411.988735 L297.821071,412 C297.424976,412 297.026349,412 296.625166,412 L115.374834,412 L112.998212,411.994992 C112.607154,411.993323 112.218602,411.991237 111.83253,411.988735 L109.54565,411.968735 L107.317056,411.938771 C106.950413,411.932948 106.586146,411.926711 106.224232,411.92006 L104.080756,411.875196 C103.728144,411.866893 103.377833,411.858177 103.029796,411.849049 L100.968663,411.78934 L98.9608845,411.719765 C98.3003803,411.694932 97.6485629,411.668458 97.0052267,411.640349 L95.1004569,411.551116 L93.2453418,411.45209 L91.4386485,411.343297 C91.1414995,411.324352 90.8463168,411.305001 90.5530746,411.285245 L88.8167018,411.161846 C83.6762085,410.777076 79.147792,410.261267 75.0816326,409.617395 L73.7431612,409.398032 L72.437698,409.169208 C72.222803,409.130283 72.0092319,409.090966 71.7969592,409.051255 L70.5386962,408.808284 C70.3315138,408.767005 70.1255782,408.725334 69.9208639,408.683272 L68.7070267,408.42621 C68.5070944,408.382585 68.308332,408.338571 68.1107136,408.294166 L66.9385278,408.023068 C65.0070826,407.563458 63.1849132,407.064987 61.4463305,406.528164 L60.4130057,406.201472 C59.3893004,405.870187 58.3938366,405.525131 57.4210655,405.166416 L56.4556531,404.803152 C56.2959432,404.741851 56.1368123,404.680171 55.9782347,404.618113 L55.033203,404.241236 C54.7202686,404.114101 54.4093417,403.985459 54.100217,403.855314 L53.1780437,403.460371 C53.0251807,403.393796 52.8727169,403.326847 52.7206265,403.259524 L51.8123602,402.851096 L50.9118238,402.433709 L50.0177843,402.007387 L49.1290086,401.572155 L48.2442636,401.128037 L47.3623162,400.675058 L46.4819334,400.213242 C46.3352648,400.135538 46.18861,400.057467 46.0419433,399.979028 C31.3752767,392.135209 19.8647908,380.624723 12.0209717,365.958057 L11.5547466,365.077994 C11.4777771,364.931272 11.4011753,364.78451 11.3249417,364.637684 L10.8719626,363.755736 L10.4278447,362.870991 L9.99261264,361.982216 L9.5662908,361.088176 L9.14890373,360.18764 L8.74047593,359.279373 C8.6731526,359.127283 8.60620359,358.974819 8.53962942,358.821956 L8.14468647,357.899783 C8.01454088,357.590658 7.88589872,357.279731 7.75876406,356.966797 L7.38188667,356.021765 C7.31982889,355.863188 7.258149,355.704057 7.19684753,355.544347 L6.83358363,354.578935 C6.47486881,353.606163 6.12981342,352.6107 5.79852773,351.586994 L5.47183602,350.55367 C4.9350133,348.815087 4.43654184,346.992917 3.97693214,345.061472 L3.70583381,343.889286 C3.66142936,343.691668 3.61741454,343.492906 3.57378987,343.292973 L3.31672772,342.079136 C3.27466568,341.874422 3.23299482,341.668486 3.19171564,341.461304 L2.9487448,340.203041 C2.90903438,339.990768 2.86971666,339.777197 2.83079216,339.562302 L2.60196776,338.256839 L2.38260495,336.918367 C1.7387334,332.852208 1.22292411,328.323791 0.838154228,323.183298 L0.714754996,321.446925 C0.694998704,321.153683 0.675647875,320.8585 0.656703021,320.561352 L0.547909667,318.754658 L0.448884194,316.899543 L0.359651105,314.994773 C0.345596317,314.673105 0.331950566,314.349317 0.318714362,314.023382 L0.244215794,312.041818 C0.232619822,311.707197 0.221434419,311.370378 0.210660094,311.031337 L0.150951179,308.970204 C0.141823212,308.622167 0.133107346,308.271856 0.124804089,307.919244 L0.0799399593,305.775768 L0.0450029821,303.575856 C0.0400087766,303.204432 0.0354292234,302.830605 0.031264833,302.45435 L0.0112645286,300.16747 L0.00125263526,297.821071 L0.00125263526,114.178929 L0.0112645286,111.83253 L0.031264833,109.54565 L0.0612290451,107.317056 C0.0670520448,106.950413 0.0732891864,106.586146 0.0799399593,106.224232 L0.124804089,104.080756 C0.133107346,103.728144 0.141823212,103.377833 0.150951179,103.029796 L0.210660094,100.968663 L0.280234904,98.9608845 C0.305068101,98.3003803 0.331541529,97.6485629 0.359651105,97.0052267 L0.448884194,95.1004569 L0.547909667,93.2453418 L0.656703021,91.4386485 C0.675647875,91.1414995 0.694998704,90.8463168 0.714754996,90.5530746 L0.838154228,88.8167018 C1.22292411,83.6762085 1.7387334,79.147792 2.38260495,75.0816326 L2.60196776,73.7431612 L2.83079216,72.437698 C2.86971666,72.222803 2.90903438,72.0092319 2.9487448,71.7969592 L3.19171564,70.5386962 C3.23299482,70.3315138 3.27466568,70.1255782 3.31672772,69.9208639 L3.57378987,68.7070267 C3.61741454,68.5070944 3.66142936,68.308332 3.70583381,68.1107136 L3.97693214,66.9385278 C4.43654184,65.0070826 4.9350133,63.1849132 5.47183602,61.4463305 L5.79852773,60.4130057 C6.12981342,59.3893004 6.47486881,58.3938366 6.83358363,57.4210655 L7.19684753,56.4556531 C7.258149,56.2959432 7.31982889,56.1368123 7.38188667,55.9782347 L7.75876406,55.033203 C7.88589872,54.7202686 8.01454088,54.4093417 8.14468647,54.100217 L8.53962942,53.1780437 C8.60620359,53.0251807 8.6731526,52.8727169 8.74047593,52.7206265 L9.14890373,51.8123602 L9.5662908,50.9118238 L9.99261264,50.0177843 L10.4278447,49.1290086 L10.8719626,48.2442636 L11.3249417,47.3623162 L11.7867576,46.4819334 C11.864462,46.3352648 11.9425335,46.18861 12.0209717,46.0419433 C19.8647908,31.3752767 31.3752767,19.8647908 46.0419433,12.0209717 L46.9220063,11.5547466 C47.0687282,11.4777771 47.2154896,11.4011753 47.3623162,11.3249417 L48.2442636,10.8719626 L49.1290086,10.4278447 L50.0177843,9.99261264 L50.9118238,9.5662908 L51.8123602,9.14890373 L52.7206265,8.74047593 C52.8727169,8.6731526 53.0251807,8.60620359 53.1780437,8.53962942 L54.100217,8.14468647 C54.4093417,8.01454088 54.7202686,7.88589872 55.033203,7.75876406 L55.9782347,7.38188667 C56.1368123,7.31982889 56.2959432,7.258149 56.4556531,7.19684753 L57.4210655,6.83358363 C58.3938366,6.47486881 59.3893004,6.12981342 60.4130057,5.79852773 L61.4463305,5.47183602 C63.1849132,4.9350133 65.0070826,4.43654184 66.9385278,3.97693214 L68.1107136,3.70583381 C68.308332,3.66142936 68.5070944,3.61741454 68.7070267,3.57378987 L69.9208639,3.31672772 C70.1255782,3.27466568 70.3315138,3.23299482 70.5386962,3.19171564 L71.7969592,2.9487448 C72.0092319,2.90903438 72.222803,2.86971666 72.437698,2.83079216 L73.7431612,2.60196776 L75.0816326,2.38260495 C79.147792,1.7387334 83.6762085,1.22292411 88.8167018,0.838154228 L90.5530746,0.714754996 C90.8463168,0.694998704 91.1414995,0.675647875 91.4386485,0.656703021 L93.2453418,0.547909667 L95.1004569,0.448884194 L97.0052267,0.359651105 C97.3268948,0.345596317 97.6506832,0.331950566 97.9766176,0.318714362 L99.9581817,0.244215794 C100.292803,0.232619822 100.629622,0.221434419 100.968663,0.210660094 L103.029796,0.150951179 C103.377833,0.141823212 103.728144,0.133107346 104.080756,0.124804089 L106.224232,0.0799399593 L108.424144,0.0450029821 C108.795568,0.0400087766 109.169395,0.0354292234 109.54565,0.031264833 L111.83253,0.0112645286 L114.178929,0.00125263526 Z" id="Rectangle" fill="url(#linearGradient-1)"></path>
            <g id="Combined-Shape">
                <use fill="black" fill-opacity="1" filter="url(#filter-4)" xlink:href="#path-3"></use>
                <use fill="url(#linearGradient-2)" fill-rule="evenodd" xlink:href="#path-3"></use>
            </g>
        </g>
    </g>
</svg>